<svg width="160" height="40" viewBox="0 0 160 40" fill="none" xmlns="http://www.w3.org/2000/svg">
<path d="M72.5805 30.8797L71.7449 33.1902H70.8801L73.5327 25.7952H74.5938L77.3656 33.1902H76.4372L75.5778 30.8797H72.5805ZM75.3496 30.1239C74.6122 28.1106 74.2172 27.0737 74.0581 26.5273C73.8801 27.1374 73.4345 28.4025 72.8405 30.1239H75.3496ZM83.5722 32.572C84.779 32.572 85.2537 31.9937 85.2537 31.2671C85.2537 30.4978 84.8875 30.0549 83.3651 29.6756C81.6728 29.2592 81.047 28.6889 81.047 27.6413C81.047 26.5936 81.8427 25.6813 83.4606 25.6813C85.1847 25.6813 85.8984 26.6918 85.9966 27.6413H85.1103C84.97 26.9464 84.5297 26.3973 83.426 26.3973C82.4819 26.3973 81.9543 26.8299 81.9543 27.5669C81.9543 28.3043 82.3918 28.5778 83.7049 28.8934C85.8056 29.408 86.1606 30.2194 86.1606 31.1635C86.1606 32.3282 85.3012 33.2647 83.5085 33.2647C81.6517 33.2647 80.8878 32.23 80.7394 31.1424H81.6253C81.8292 32.0547 82.4501 32.564 83.5614 32.564M86.7443 27.8215H87.6911V26.217H88.511V27.8215H89.7178V28.5087H88.5321V31.7418C88.5321 32.2726 88.6594 32.572 89.1525 32.572C89.3179 32.5756 89.4825 32.5586 89.6434 32.5218V33.1584C89.396 33.2333 89.1377 33.2665 88.8795 33.2566C88.0838 33.2566 87.7126 32.8482 87.7126 31.9673V28.5195H86.7551L86.7443 27.8215ZM91.1259 30.6412C91.1259 31.8108 91.723 32.6093 92.6645 32.6093C92.9567 32.637 93.2504 32.5658 93.4969 32.4062C93.7439 32.247 93.93 32.0094 94.025 31.7315H94.8526C94.6378 32.4237 94.0568 33.3229 92.638 33.3229C90.9668 33.3229 90.2961 31.9435 90.2961 30.5695C90.2961 28.9781 91.0918 27.7076 92.699 27.7076C94.4043 27.7076 94.9615 29.1054 94.9615 30.2113C94.9615 30.3705 94.9615 30.5112 94.9615 30.6547L91.1259 30.6412ZM94.1259 30.0392C94.1259 29.1081 93.6355 28.3653 92.6833 28.3653C91.7307 28.3653 91.2586 29.0525 91.1578 30.0392H94.1259ZM97.0012 32.4846V35.299H96.1844V29.1399C96.1844 28.7024 96.1844 28.2433 96.1844 27.8296H96.9802C97.0012 28.0151 97.0093 28.3388 97.0093 28.7078C97.1779 28.385 97.4365 28.1183 97.7539 27.9398C98.0713 27.7614 98.4335 27.6789 98.7966 27.7022C100.043 27.7022 100.94 28.7472 100.94 30.3732C100.94 32.2883 99.9057 33.3175 98.6084 33.3175C97.7225 33.3175 97.2586 32.9383 97.0169 32.4927M100.099 30.405C100.099 29.2381 99.5686 28.4213 98.6034 28.4213C97.4441 28.4213 96.9775 29.1534 96.9775 30.4978C96.9775 31.8427 97.354 32.62 98.5317 32.62C99.5475 32.62 100.099 31.779 100.099 30.4158M111.382 28.4953L109.526 31.2778L111.481 33.201H110.346L109.062 31.9355C108.385 32.8347 107.767 33.3068 106.691 33.3068C106.427 33.3211 106.164 33.2821 105.916 33.1916C105.669 33.101 105.442 32.9607 105.25 32.78C105.058 32.5989 104.906 32.3811 104.801 32.1394C104.696 31.8974 104.641 31.6369 104.64 31.3733C104.64 30.5085 105.057 29.8774 106.263 29.1798C105.709 28.6307 105.354 28.1425 105.354 27.4557C105.347 27.2185 105.389 26.9827 105.478 26.7635C105.567 26.5439 105.701 26.3448 105.872 26.1798C106.042 26.0153 106.244 25.8876 106.466 25.8051C106.689 25.723 106.926 25.6881 107.163 25.7024C107.388 25.6912 107.614 25.7262 107.826 25.806C108.038 25.8853 108.231 26.0072 108.393 26.1646C108.556 26.3215 108.685 26.5107 108.771 26.7196C108.858 26.928 108.901 27.1526 108.897 27.3786C108.897 28.1003 108.491 28.5751 107.43 29.2197L109.022 30.7842L110.505 28.4953H111.382ZM106.712 29.6281C105.699 30.2382 105.489 30.7157 105.489 31.2908C105.489 31.6235 105.619 31.9422 105.851 32.1802C106.082 32.4183 106.398 32.5559 106.73 32.564C107.423 32.564 107.884 32.3416 108.552 31.445L106.712 29.6281ZM108.107 27.3866C108.117 27.254 108.099 27.1204 108.055 26.9948C108.01 26.8693 107.94 26.7545 107.849 26.6573C107.758 26.56 107.649 26.4824 107.526 26.43C107.404 26.3775 107.272 26.3511 107.138 26.3524C106.542 26.3524 106.131 26.7371 106.131 27.4131C106.131 27.856 106.438 28.2568 106.964 28.7633C107.722 28.307 108.107 27.9676 108.107 27.3759" fill="#395389"/>
<path d="M115.619 25.7898H118.383C119.905 25.7898 120.642 26.5855 120.642 27.6309C120.661 27.9801 120.565 28.3258 120.37 28.6163C120.175 28.9068 119.891 29.126 119.56 29.2407C119.946 29.3533 120.285 29.5886 120.525 29.9114C120.764 30.2342 120.891 30.6264 120.887 31.0285C120.887 32.4447 119.81 33.1848 118.439 33.1848H115.619V25.7898ZM118.194 28.8933C119.322 28.8933 119.759 28.4585 119.759 27.6995C119.759 27.0262 119.279 26.5245 118.367 26.5245H116.463V28.8933H118.194ZM118.364 32.4528C119.306 32.4528 119.996 32.0018 119.996 31.0339C119.996 30.1956 119.465 29.6254 118.139 29.6254H116.463V32.4528H118.364ZM122.722 30.6439C122.722 31.8135 123.319 32.6119 124.261 32.6119C124.553 32.6397 124.846 32.5684 125.093 32.4088C125.34 32.2497 125.526 32.0121 125.621 31.7341H126.449C126.234 32.4263 125.653 33.3256 124.234 33.3256C122.563 33.3256 121.892 31.9462 121.892 30.5722C121.892 28.9807 122.688 27.7103 124.295 27.7103C126 27.7103 126.558 29.108 126.558 30.214C126.558 30.3731 126.558 30.5139 126.558 30.6573L122.722 30.6439ZM125.722 30.0418C125.722 29.1107 125.231 28.3679 124.279 28.3679C123.327 28.3679 122.855 29.0551 122.754 30.0418H125.722ZM129.655 32.4608C129.839 31.8399 130.234 30.604 131.154 27.8246H131.987L130.035 33.4475C129.483 35.0206 129.085 35.4048 128.024 35.4048C127.84 35.4048 127.656 35.3931 127.473 35.3707V34.6382C127.622 34.6579 127.773 34.6678 127.924 34.6678C128.629 34.6678 128.884 34.3495 129.221 33.3969L127.202 27.8268H128.093C129.016 30.53 129.491 31.909 129.645 32.4635M137.483 30.4982C137.483 32.026 136.613 33.3148 134.987 33.3148C133.475 33.3148 132.554 32.1264 132.554 30.5139C132.554 28.9435 133.446 27.6995 135.045 27.6995C136.515 27.6995 137.483 28.8162 137.483 30.4982ZM133.404 30.4982C133.404 31.6996 134.016 32.6038 135.027 32.6038C136.037 32.6038 136.634 31.7525 136.634 30.5004C136.634 29.2488 136.058 28.3921 135.005 28.3921C133.952 28.3921 133.414 29.2569 133.414 30.4982M138.732 29.1717C138.732 28.705 138.732 28.2384 138.732 27.8192H139.528C139.551 27.981 139.565 28.5804 139.56 28.7369C139.78 28.254 140.218 27.6919 141.27 27.6919C142.262 27.6919 143.063 28.2859 143.063 29.7262V33.1745H142.244V29.8455C142.244 28.9969 141.907 28.4316 141.058 28.4316C139.976 28.4316 139.56 29.2779 139.56 30.3812V33.1902H138.743L138.732 29.1717ZM149.053 31.657C149.053 32.1636 149.053 32.6572 149.053 33.1794H148.257C148.233 33.0418 148.217 32.6038 148.214 32.3837C147.949 32.9674 147.389 33.3094 146.498 33.3094C145.117 33.3094 144.27 32.1874 144.27 30.5619C144.27 28.9359 145.186 27.6946 146.657 27.6946C147.639 27.6946 148.063 28.1003 148.212 28.4132V25.3922H149.031L149.053 31.657ZM145.143 30.53C145.143 31.8718 145.798 32.5989 146.663 32.5989C147.96 32.5989 148.254 31.6597 148.254 30.4076C148.254 29.156 147.989 28.4024 146.732 28.4024C145.753 28.4024 145.14 29.1771 145.14 30.5247" fill="#F7C844"/>
<path d="M73.8462 18.3925C73.8462 18.9551 73.6229 19.4949 73.2248 19.893C72.8267 20.2911 72.287 20.5143 71.7244 20.5143H63.2633C62.7003 20.5143 62.1605 20.2911 61.7629 19.893C61.3648 19.4949 61.1411 18.9551 61.1411 18.3925V14.1647H64.324V17.5677H70.6687V5.70361H73.8516L73.8462 18.3925Z" fill="#395389"/>
<path d="M87.8162 18.3925C87.8162 18.9551 87.5929 19.4949 87.1949 19.893C86.7968 20.2911 86.257 20.5143 85.6944 20.5143H77.2307C76.6676 20.5143 76.1283 20.2911 75.7302 19.893C75.3321 19.4949 75.1089 18.9551 75.1089 18.3925V7.82001C75.1089 7.2574 75.3321 6.71765 75.7302 6.31957C76.1283 5.92149 76.6676 5.69824 77.2307 5.69824H85.6944C86.2557 5.70228 86.7932 5.92732 87.1904 6.32406C87.5871 6.72124 87.8122 7.25875 87.8162 7.82001V18.3925ZM84.6333 17.5677V8.64487H78.2891V17.5677H84.6333Z" fill="#395389"/>
<path d="M101.762 18.3925C101.762 18.9551 101.539 19.4949 101.141 19.893C100.743 20.2911 100.203 20.5143 99.6404 20.5143H89.0732V5.70361H99.6485C100.211 5.70361 100.751 5.92686 101.149 6.32494C101.547 6.72302 101.77 7.26233 101.77 7.82538V10.1408C101.77 10.7034 101.547 11.2432 101.149 11.6412C100.751 12.0393 100.211 12.2626 99.6485 12.2626C100.211 12.2626 100.751 12.4863 101.149 12.8844C101.547 13.282 101.77 13.8217 101.77 14.3848L101.762 18.3925ZM98.5793 10.7801V8.65831H92.2454V10.7801H98.5793ZM98.5793 17.5677V13.7191H92.2454V17.5677H98.5793Z" fill="#395389"/>
<path d="M118.261 20.5089H114.638L113.312 17.1248H107.351L105.996 20.5089H102.405L108.327 5.70361H112.346L118.261 20.5089ZM112.131 14.1858L110.317 9.65037L108.526 14.1858H112.131Z" fill="#F7C844"/>
<path d="M133.703 20.5089H129.672L126.287 15.8646L122.905 20.5089H118.874L124.274 13.0982L118.887 5.70361H122.916L126.3 10.3506L129.661 5.70361H133.703L128.316 13.0982L133.703 20.5089Z" fill="#F7C844"/>
<path d="M146.599 20.5089H137.082C136.519 20.5089 135.979 20.2857 135.581 19.8876C135.183 19.4895 134.96 18.9498 134.96 18.3872V5.70361H138.143V17.5677H146.601L146.599 20.5089Z" fill="#F7C844"/>
<path d="M159.5 20.5089H149.983C149.421 20.5089 148.881 20.2857 148.483 19.8876C148.085 19.4895 147.862 18.9498 147.862 18.3872V7.82001C147.862 7.2574 148.085 6.71765 148.483 6.31957C148.881 5.92149 149.421 5.69824 149.983 5.69824H159.5V8.63949H151.039V10.7617H159.5V13.7003H151.039V17.5677H159.5V20.5089Z" fill="#F7C844"/>
<path d="M33.2985 12.9579C33.0412 12.1218 32.6507 11.3328 32.1419 10.6209C31.5214 9.80145 30.7943 9.34241 30.0201 9.37962C29.5082 9.37783 29.0047 9.50827 28.5587 9.75886C27.8396 10.2045 27.5402 10.9921 27.4178 11.9658C27.3277 14.6179 27.8477 20.8035 25.8398 22.9839C25.5744 23.2489 25.3359 23.4959 25.0867 23.716C24.5007 24.2226 23.844 24.6408 23.137 24.9573C22.4588 25.2586 21.7245 25.4146 20.9821 25.4146C20.2393 25.4146 19.5054 25.2586 18.8267 24.9573C22.6596 22.6204 22.0974 17.9232 22.0522 12.6445C22.0522 9.64231 22.0123 10.4457 22.0123 5.41447C22.0123 3.50699 20.7974 2.6503 19.2804 2.32663C17.5751 1.95813 15.4954 2.26073 14.355 2.48846C14.2725 2.50191 14.1985 2.51535 14.1214 2.53373C14.0757 2.54046 14.0304 2.55122 13.986 2.56557C13.6866 2.62653 13.5113 2.67674 13.5113 2.67674C13.3894 2.70363 13.2701 2.7247 13.1536 2.75384C13.0366 2.78298 12.9092 2.81212 12.7927 2.84126L12.6891 2.8704C9.04424 3.83333 5.82142 5.97796 3.52535 8.96807C1.22924 11.9582 -0.0105568 15.6252 6.77204e-05 19.3949C6.77204e-05 27.5112 7.04221 36.6358 16.9434 36.5085H16.9703C18.6604 36.4838 20.3379 36.2104 21.9486 35.6966C33.8499 31.9834 35.3938 19.2519 33.2985 12.9579Z" fill="#F7C844"/>
<path d="M19.0182 25.806C17.7634 25.2147 16.549 24.7717 16.6072 23.7608C16.5996 23.4695 16.6669 23.1808 16.8023 22.923C16.9381 22.6648 17.1376 22.4456 17.3815 22.2864L17.4213 22.2573C17.7051 22.0609 17.9373 21.7996 18.0996 21.4947C18.2614 21.1903 18.348 20.8514 18.3525 20.5067C18.3022 19.3739 17.1349 18.5172 15.8564 18.5754C14.4586 18.6606 12.5704 19.9019 12.6735 21.891C12.7824 23.7214 14.5756 25.3577 16.1697 25.7132C17.0981 25.9938 18.0839 26.0261 19.0289 25.806" fill="white"/>
<path d="M43.7866 10.0162C53.168 14.3341 55.6587 29.0233 48.2955 30.9384C46.3751 31.4369 45.3565 24.3288 44.4151 23.9043C43.6934 23.5779 37.9803 23.374 37.1209 23.9043C36.6224 24.2145 35.1529 32.5483 34.2564 32.9647C33.2589 33.4292 32.3704 33.3731 29.5668 30.9783C29.1794 30.652 32.3731 39.6223 42.6775 39.6223C46.5113 39.6192 50.1945 38.1313 52.9542 35.4707C55.7143 32.8101 57.3358 29.1838 57.4793 25.3527C57.6227 21.5221 56.2769 17.7846 53.7235 14.925C51.1704 12.0653 47.6088 10.3062 43.7866 10.0162Z" fill="#395389"/>
<path d="M31.1292 0.666598C31.2776 1.04585 30.4792 1.25789 30.5801 2.22351C30.5801 2.78836 31.1319 3.25772 31.6412 3.58946L31.6811 3.61591C31.9608 3.79164 32.1948 4.03148 32.3629 4.31569C32.5315 4.59991 32.6297 4.92 32.6489 5.24994C32.6489 6.33481 31.5721 7.20987 30.3443 7.20987C29.8995 7.22018 29.4575 7.14039 29.0447 6.97542C28.6318 6.8109 28.2566 6.56434 27.941 6.25098C27.6254 5.93762 27.3761 5.56419 27.2085 5.15221C27.0408 4.74067 26.9579 4.29911 26.965 3.85485C26.965 -0.00180617 30.9091 0.0990568 31.1346 0.671975" fill="#395389"/>
<path d="M37.5219 19.4747C38.2858 20.3977 42.9144 20.5941 43.8137 19.7558C44.166 19.4294 43.9275 18.7745 43.6675 17.634C43.2829 15.9444 43.0919 15.1007 42.2698 14.565C41.3203 13.9419 39.8373 13.9284 38.917 14.565C38.2167 15.0581 38.0311 15.952 37.6627 17.7479C37.469 18.6844 37.3045 19.2039 37.5219 19.4693" fill="#395389"/>
</svg>
