<svg width="180" height="57" viewBox="0 0 180 57" fill="none" xmlns="http://www.w3.org/2000/svg">
<path d="M68.5143 24.68L66.7616 26.6201V29.8604H63.406V16.6659H66.7616V22.3767L71.8122 16.6659H75.6953L70.7946 22.1316L76.0153 29.8604H71.9996L68.5143 24.68Z" fill="#58595B"/>
<path d="M88.8868 24.3224C88.8868 27.8077 86.5691 30.013 82.8733 30.013C79.1603 30.013 76.7849 27.8077 76.7849 24.3224V16.6715H80.1405V24.3224C80.1405 26.1126 81.2907 27.2052 82.8935 27.2052C84.4762 27.2052 85.5514 26.1126 85.5514 24.3224V16.6715H88.8868V24.3224Z" fill="#58595B"/>
<path d="M102.361 29.8633L102.341 21.287L99.1756 28.543H96.9905L93.8223 21.287V29.8633H90.8242V16.6515H94.4998L98.0802 24.51L101.661 16.6515H105.316V29.8633H102.361Z" fill="#58595B"/>
<path d="M110.502 27.433L109.542 29.8632H106.091L111.785 16.6687H115.233L120.793 29.8632H117.213L116.27 27.433H110.502ZM113.402 20.007L111.479 24.8875H115.287L113.402 20.007Z" fill="#58595B"/>
<path d="M127.536 26.1502H127.441H124.896V29.8632H121.54V16.6687H127.438C130.926 16.6687 132.924 18.3263 132.924 21.2667C132.924 23.2847 132.077 24.7347 130.531 25.5073L133.302 29.8603H129.494L127.536 26.1502ZM127.441 23.5124C128.891 23.5124 129.742 22.7773 129.742 21.382C129.742 20.007 128.894 19.3093 127.441 19.3093H124.896V23.5124H127.441Z" fill="#58595B"/>
<path d="M134.717 29.8632V16.6687H138.073V29.8632H134.717Z" fill="#58595B"/>
<path d="M151.829 25.5852C151.829 28.393 150.077 30.0131 147.269 30.0131C145.404 30.0131 143.896 29.2405 142.726 27.9029L144.271 25.6601C145.213 26.6403 146.269 27.1304 147.041 27.1304C147.926 27.1304 148.454 26.5826 148.454 25.5102V19.367H143.931V16.6543H151.827V25.5852H151.829Z" fill="#58595B"/>
<path d="M167.169 23.2501C167.169 27.0957 164.116 30.016 160.025 30.016C155.955 30.016 152.902 27.113 152.902 23.2501C152.902 19.4045 155.955 16.5592 160.025 16.5592C164.116 16.5592 167.169 19.4218 167.169 23.2501ZM156.332 23.2674C156.332 25.4929 158.048 27.2053 160.066 27.2053C162.101 27.2053 163.721 25.49 163.721 23.2674C163.721 21.0448 162.101 19.367 160.066 19.367C158.027 19.367 156.332 21.0419 156.332 23.2674Z" fill="#58595B"/>
<path d="M174.707 16.6716C177.665 16.6716 179.55 17.9544 179.55 19.9695C179.55 21.3647 178.683 22.4775 177.287 22.8724C178.945 23.1924 180 24.4926 180 26.2078C180 28.4506 178.04 29.8632 174.929 29.8632H168.466V16.6687H174.707V16.6716ZM171.804 21.9471H174.52C175.5 21.9471 176.123 21.4195 176.123 20.572C176.123 19.7244 175.5 19.2344 174.52 19.2344H171.804V21.9471ZM171.804 27.2831H174.52C175.762 27.2831 176.538 26.7354 176.538 25.7927C176.538 24.9077 175.765 24.36 174.52 24.36H171.804V27.2831Z" fill="#58595B"/>
<path d="M100.709 36.7298C100.732 38.0559 99.922 39.3964 98.0886 39.3964C97.4457 39.3964 96.6731 39.3964 96.0303 39.3964V34.1555C96.6731 34.1555 97.4457 34.1555 98.0886 34.1555C99.8846 34.1555 100.686 35.4355 100.709 36.7298ZM97.0075 38.4451H98.0857C99.2763 38.4451 99.7491 37.5774 99.726 36.7241C99.7029 35.9082 99.2244 35.0924 98.0857 35.0924H97.0075V38.4451Z" fill="#1C75BC"/>
<path d="M106.757 39.3963H105.581L104.053 37.6436H103.102V39.3963H102.113V34.1468C102.943 34.1468 103.776 34.1554 104.607 34.1554C105.843 34.1641 106.495 34.9857 106.495 35.8938C106.495 36.6116 106.166 37.338 105.169 37.5398L106.757 39.33V39.3963ZM103.102 35.075V36.7528H104.607C105.235 36.7528 105.506 36.3348 105.506 35.9139C105.506 35.493 105.229 35.075 104.607 35.075H103.102Z" fill="#1C75BC"/>
<path d="M111.817 39.3964H107.893C107.893 37.6523 107.893 35.8996 107.893 34.1555H111.817V35.1155H108.873V36.3205H111.71V37.2401H108.873V38.422H111.817V39.3964Z" fill="#1C75BC"/>
<path d="M117.049 38.4076H114.307L113.858 39.3964H112.785L115.137 34.1555H116.216L118.568 39.3964H117.49L117.049 38.4076ZM115.679 35.2539L114.705 37.4851H116.651L115.679 35.2539Z" fill="#1C75BC"/>
<path d="M124.25 35.5996L122.543 37.877H122.347L120.678 35.5938V39.4049H119.689V34.164H120.828L122.468 36.4183L124.109 34.164H125.239V39.4049H124.25V35.5996Z" fill="#1C75BC"/>
<path d="M133.434 35.6747C133.434 36.0783 133.241 36.4675 132.754 36.6866C133.368 36.874 133.593 37.5255 133.593 37.8541C133.593 39.0216 132.716 39.3964 131.63 39.3964C130.799 39.3964 129.975 39.3964 129.142 39.3964V34.1555C129.966 34.1555 130.797 34.1555 131.63 34.1555C132.665 34.1555 133.434 34.6196 133.434 35.6747ZM130.119 36.2599H131.633C132.255 36.2599 132.457 35.9976 132.457 35.6978C132.457 35.4585 132.261 35.0549 131.633 35.0549H130.119V36.2599ZM130.119 38.4739H131.633C132.036 38.4739 132.613 38.3384 132.613 37.8455C132.613 37.3727 132.036 37.1277 131.633 37.1277H130.119V38.4739Z" fill="#1C75BC"/>
<path d="M135.043 39.3964V34.1555H136.023V39.3964H135.043Z" fill="#1C75BC"/>
<path d="M141.596 35.4354C141.244 35.0981 140.719 34.9107 140.264 34.9107C139.139 34.9107 138.459 35.764 138.459 36.8422C138.459 37.7041 138.961 38.5949 140.264 38.5949C140.676 38.5949 141.036 38.5056 141.446 38.1769V37.2487H140.105V36.3637H142.351V38.5719C141.835 39.1628 141.183 39.5145 140.261 39.5145C138.292 39.5145 137.49 38.2173 137.49 36.8422C137.49 35.3662 138.413 34.0027 140.261 34.0027C140.964 34.0027 141.668 34.2736 142.207 34.8041L141.596 35.4354Z" fill="#1C75BC"/>
<path d="M145.188 38.8572C145.188 39.6442 143.988 39.6442 143.988 38.8572C143.988 38.0644 145.188 38.0644 145.188 38.8572ZM145.075 34.1611V38.027H144.095V34.1611H145.075Z" fill="#1C75BC"/>
<path d="M91.6889 36.6895H62.8958V37.266H91.6889V36.6895Z" fill="#00AEEF"/>
<path d="M179.395 36.6895H150.601V37.266H179.395V36.6895Z" fill="#00AEEF"/>
<path d="M29.3402 26.1786L38.4757 16.3397H30.8681L23.8197 24.1838L23.8341 4.40789C23.8312 4.41078 23.8226 4.41078 23.8197 4.41078C21.672 4.73653 19.6166 5.3448 17.6909 6.19522C8.74562 10.1331 2.59665 19.2859 3.1069 29.7792C3.7094 42.1146 13.6233 52.1727 25.9472 52.9424C30.6461 53.2364 35.0798 52.19 38.9168 50.1518L40.8021 52.0372L41.1826 52.4177C36.7922 54.943 31.6435 56.2979 26.1691 56.0356C12.2395 55.3697 0.890044 44.1729 0.0511554 30.2549C-0.8771 14.858 10.9452 1.95177 25.9385 1.10135V8.23334C25.9846 8.23046 26.0336 8.22758 26.0798 8.2247C37.1669 7.47806 46.9713 15.8554 47.8303 26.9368C48.2455 32.2901 46.5936 37.2485 43.584 41.1028L29.3402 26.1786Z" fill="url(#paint0_linear_909_17309)"/>
<path d="M30.6056 4.90655C31.9605 4.90655 33.0588 3.80819 33.0588 2.4533C33.0588 1.09841 31.9605 6.10352e-05 30.6056 6.10352e-05C29.2507 6.10352e-05 28.1523 1.09841 28.1523 2.4533C28.1523 3.80819 29.2507 4.90655 30.6056 4.90655Z" fill="url(#paint1_linear_909_17309)"/>
<path d="M34.9646 2.0957C34.9733 2.2139 34.9819 2.33209 34.9819 2.45317C34.9819 3.42755 34.6591 4.32409 34.12 5.05055C44.3884 7.9391 51.9413 17.3831 51.9413 28.5625C51.9413 36.4065 48.0928 43.5414 42.3301 48.0155L40.2805 45.963L39.4531 45.0866L36.4176 41.8781L23.8198 28.5452V42.936H17.691V10.6922C11.3893 14.163 7.11987 20.8626 7.11987 28.5625C7.11987 39.8226 16.2468 48.9495 27.5069 48.9495C31.2574 48.9495 34.7686 47.9377 37.7898 46.1676L40.7215 49.0994C40.7446 49.085 42.9096 51.273 42.9096 51.273C43.4746 50.8896 44.1232 50.4832 44.6537 50.0565C50.9669 45.0088 55.0172 37.2512 55.0172 28.5625C55.0172 15.9821 46.5188 5.35036 34.9646 2.0957Z" fill="url(#paint2_linear_909_17309)"/>
<defs>
<linearGradient id="paint0_linear_909_17309" x1="0.00183102" y1="28.5868" x2="47.8964" y2="28.5868" gradientUnits="userSpaceOnUse">
<stop stop-color="#2B3990"/>
<stop offset="1" stop-color="#00AEEF"/>
</linearGradient>
<linearGradient id="paint1_linear_909_17309" x1="26.2927" y1="5.93945" x2="31.7303" y2="1.54601" gradientUnits="userSpaceOnUse">
<stop/>
<stop offset="1" stop-color="#808285"/>
</linearGradient>
<linearGradient id="paint2_linear_909_17309" x1="-9.59857" y1="63.1147" x2="43.4831" y2="20.2262" gradientUnits="userSpaceOnUse">
<stop/>
<stop offset="1" stop-color="#808285"/>
</linearGradient>
</defs>
</svg>
