<?xml version="1.0" encoding="utf-8"?>
<!-- Generator: Adobe Illustrator 16.0.0, SVG Export Plug-In . SVG Version: 6.00 Build 0)  -->
<!DOCTYPE svg PUBLIC "-//W3C//DTD SVG 1.1//EN" "http://www.w3.org/Graphics/SVG/1.1/DTD/svg11.dtd">
<svg version="1.1" id="Layer_1" xmlns="http://www.w3.org/2000/svg" xmlns:xlink="http://www.w3.org/1999/xlink" x="0px" y="0px"
	 width="149.567px" height="29.813px" viewBox="12.724 10.563 149.567 29.813"
	 enable-background="new 12.724 10.563 149.567 29.813" xml:space="preserve">
<g>
	<g>
		<path fill="#002B5C" d="M92.229,28.882c-0.868,0-1.546-0.669-1.546-1.524v-5.55c0-1.776-0.804-2.756-2.257-2.756
			c-1.479,0-2.396,1.073-2.396,2.802v5.504c0,0.854-0.669,1.524-1.523,1.524c-0.87,0-1.547-0.669-1.547-1.524v-5.572
			c0-1.739-0.825-2.734-2.258-2.734c-1.455,0-2.395,1.098-2.395,2.802v5.504c0,0.854-0.679,1.524-1.548,1.524
			c-0.855,0-1.524-0.669-1.524-1.524V17.89c0-0.869,0.669-1.547,1.524-1.547c0.869,0,1.548,0.679,1.548,1.547v0.081
			c0.713-0.877,1.753-1.74,3.481-1.74c1.603,0,2.872,0.697,3.605,1.971c1.068-1.326,2.381-1.971,4.004-1.971
			c2.729,0,4.358,1.773,4.358,4.741v6.387C93.753,28.213,93.084,28.882,92.229,28.882"/>
		<path fill="#002B5C" d="M109.694,28.882c-0.855,0-1.524-0.669-1.524-1.524V17.89c0-0.869,0.669-1.547,1.524-1.547
			c0.869,0,1.547,0.679,1.547,1.547v0.517c0.721-1.271,1.81-2.086,2.847-2.086c0.909,0,1.522,0.611,1.522,1.524
			c0,0.757-0.478,1.338-1.221,1.476c-2.032,0.355-3.148,1.955-3.148,4.505v3.532C111.242,28.199,110.546,28.882,109.694,28.882"/>
		<path fill="#002B5C" d="M121.833,29.041c-3.646,0-6.503-2.788-6.503-6.347v-0.048c0-3.596,2.878-6.416,6.552-6.416
			c3.661,0,6.527,2.799,6.527,6.37v0.045C128.409,26.231,125.521,29.041,121.833,29.041 M121.833,18.96
			c-1.988,0-3.432,1.533-3.432,3.64v0.045c0,2.055,1.526,3.664,3.48,3.664c2.002,0,3.457-1.521,3.457-3.616v-0.048
			C125.338,20.546,123.831,18.96,121.833,18.96"/>
		<path fill="#002B5C" d="M129.289,32.461c-1.043-0.028-1.662-0.514-1.662-1.299c0-0.737,0.537-1.298,1.25-1.298
			c0.035,0,0.09,0.011,0.136,0.02l0.034,0.005c0.559,0,0.845-0.38,0.845-1.127V17.89c0-0.869,0.672-1.547,1.526-1.547
			c0.865,0,1.544,0.679,1.544,1.547v10.872c0,2.385-1.23,3.699-3.471,3.699H129.289z M131.417,15.088
			c-1.003,0-1.729-0.64-1.729-1.524v-0.135c0-0.884,0.709-1.501,1.729-1.501c1.017,0,1.728,0.618,1.728,1.501v0.135
			C133.145,14.448,132.418,15.088,131.417,15.088"/>
		<path fill="#002B5C" d="M129.854,13.429c0-0.815,0.679-1.337,1.564-1.337c0.883,0,1.562,0.522,1.562,1.337v0.135
			c0,0.816-0.679,1.36-1.562,1.36c-0.885,0-1.564-0.544-1.564-1.36V13.429z"/>
		<path fill="#002B5C" d="M140.931,29.041c-3.65,0-6.507-2.788-6.507-6.347v-0.048c0-3.596,2.877-6.416,6.551-6.416
			c3.661,0,6.529,2.799,6.529,6.37v0.045C147.504,26.231,144.614,29.041,140.931,29.041 M140.931,18.96
			c-1.992,0-3.438,1.533-3.438,3.64v0.045c0,2.055,1.528,3.664,3.482,3.664c2.002,0,3.457-1.521,3.457-3.616v-0.048
			C144.432,20.546,142.926,18.96,140.931,18.96"/>
		<path fill="#002B5C" d="M155.811,29.018c-1.577,0-2.862-0.591-3.911-1.804v0.145c0,0.841-0.694,1.524-1.545,1.524
			c-0.841,0-1.524-0.683-1.524-1.524V13.314c0-0.853,0.668-1.522,1.524-1.522c0.867,0,1.545,0.67,1.545,1.522v4.833
			c1.049-1.289,2.334-1.917,3.911-1.917c2.841,0,5.715,2.189,5.715,6.37v0.044C161.526,26.83,158.652,29.018,155.811,29.018
			 M155.155,18.939c-1.896,0-3.323,1.574-3.323,3.661v0.044c0,2.09,1.427,3.666,3.323,3.666c1.917,0,3.256-1.507,3.256-3.666V22.6
			C158.411,20.513,157.01,18.939,155.155,18.939"/>
		<path fill="#002B5C" d="M99.209,22.695c0,0.591,0.442,1.068,0.984,1.068h3.524h0.436h1.211c0.821,0,1.459-0.65,1.459-1.479
			c0-2.936-2.051-6.054-5.85-6.054c-3.426,0-6.01,2.749-6.01,6.394v0.045c0,3.69,2.655,6.371,6.304,6.371
			c1.748,0,3.191-0.532,4.422-1.633c0.264-0.266,0.409-0.605,0.409-0.955c0-0.716-0.551-1.275-1.25-1.275
			c-0.365,0-0.58,0.108-0.807,0.287c-0.822,0.675-1.712,1.004-2.729,1.004c-1.689,0-2.92-1.029-3.248-2.705h0.014l-0.041-0.198
			c-0.066-0.319-0.098-0.638-0.098-0.949c0-0.392,0.045-0.779,0.142-1.155c0.342-1.641,1.44-2.659,2.869-2.659
			c1.813,0,2.653,1.425,2.849,2.819h-0.042l0.001,0.006h-3.565C99.651,21.628,99.209,22.107,99.209,22.695"/>
	</g>
	<g>
		<g>
			<defs>
				<path id="SVGID_1_" d="M41.604,13.589c-0.249,0.282-2.768,3.233-3.078,3.596L24.309,34.448
					c-0.703,0.848-1.696,1.375-2.795,1.478c-1.096,0.103-2.17-0.229-3.019-0.933c-0.853-0.703-1.376-1.696-1.479-2.793
					c-0.103-1.1,0.228-2.171,0.932-3.021l10.458-12.63c1.457-1.753,4.065-2,5.818-0.546c0.873,0.722,2.166,0.6,2.89-0.272
					c0.724-0.874,0.6-2.168-0.273-2.89c-3.496-2.895-8.695-2.405-11.591,1.09L14.79,26.562c-1.403,1.693-2.065,3.833-1.858,6.021
					c0.206,2.19,1.251,4.17,2.943,5.571c1.493,1.235,3.327,1.896,5.238,1.896c0.261,0,0.522-0.013,0.786-0.038
					c2.189-0.206,4.167-1.251,5.574-2.948l14.196-17.237c1.121-1.311,2.846-3.33,3.021-3.527c0.978-1.116,2.178-1.334,3.019-1.323
					c1.199,0.017,2.361,0.529,3.03,1.334l10.46,12.628c1.451,1.755,1.207,4.365-0.543,5.817c-0.852,0.703-1.923,1.036-3.022,0.932
					c-1.1-0.104-2.09-0.628-2.797-1.478l-6.313-7.622l-2.747-3.535c-0.695-0.894-1.983-1.057-2.88-0.36
					c-0.894,0.697-1.054,1.983-0.362,2.879l2.768,3.559l6.375,7.695c1.401,1.695,3.379,2.74,5.568,2.947
					c2.188,0.206,4.328-0.453,6.024-1.856c3.495-2.897,3.985-8.098,1.09-11.595l-10.463-12.63c-1.434-1.73-3.726-2.786-6.129-2.817
					c-0.057-0.002-0.114-0.002-0.169-0.002C45.257,10.869,43.135,11.844,41.604,13.589"/>
			</defs>
			<clipPath id="SVGID_2_">
				<use xlink:href="#SVGID_1_"  overflow="visible"/>
			</clipPath>
			
				<linearGradient id="SVGID_3_" gradientUnits="userSpaceOnUse" x1="-101.6685" y1="158.6758" x2="-101.2116" y2="158.6758" gradientTransform="matrix(0 63.8876 -63.8876 0 10177.4414 6506.2124)">
				<stop  offset="0" style="stop-color:#00AFDB"/>
				<stop  offset="0.2193" style="stop-color:#008EBA"/>
				<stop  offset="0.4049" style="stop-color:#0075A2"/>
				<stop  offset="0.638" style="stop-color:#004C7D"/>
				<stop  offset="1" style="stop-color:#262262"/>
			</linearGradient>
			<rect x="12.724" y="9.945" clip-path="url(#SVGID_2_)" fill="url(#SVGID_3_)" width="54.531" height="30.103"/>
		</g>
	</g>
	<g>
		<path fill="#002B5C" d="M75.271,38.755l2.123-4.64c0.073-0.163,0.188-0.26,0.373-0.26h0.031c0.18,0,0.296,0.097,0.365,0.26
			l2.12,4.631c0.024,0.054,0.038,0.105,0.038,0.15c0,0.157-0.127,0.284-0.284,0.284c-0.141,0-0.24-0.097-0.292-0.217L79.2,37.761
			h-2.867L75.79,38.98c-0.054,0.127-0.153,0.201-0.288,0.201c-0.148,0-0.269-0.121-0.269-0.269
			C75.233,38.867,75.242,38.814,75.271,38.755 M78.969,37.223l-1.203-2.673l-1.203,2.673H78.969z"/>
		<path fill="#002B5C" d="M81.502,34.176c0-0.164,0.135-0.299,0.292-0.299c0.163,0,0.298,0.135,0.298,0.299v4.707
			c0,0.163-0.135,0.297-0.298,0.297c-0.157,0-0.292-0.134-0.292-0.297V34.176z"/>
		<path fill="#002B5C" d="M83.626,34.183c0-0.157,0.134-0.291,0.29-0.291h0.068c0.128,0,0.218,0.066,0.276,0.157l1.868,2.807
			l1.868-2.807c0.061-0.097,0.156-0.157,0.276-0.157h0.068c0.157,0,0.291,0.134,0.291,0.291v4.7c0,0.163-0.134,0.297-0.291,0.297
			c-0.164,0-0.3-0.141-0.3-0.297v-3.9l-1.673,2.458c-0.066,0.096-0.141,0.148-0.246,0.148s-0.188-0.052-0.254-0.148l-1.665-2.449
			v3.897c0,0.165-0.128,0.291-0.293,0.291c-0.154,0-0.283-0.126-0.283-0.291V34.183z"/>
		<path fill="#002B5C" d="M92.353,34.176c0-0.164,0.136-0.299,0.29-0.299c0.166,0,0.3,0.135,0.3,0.299v2.061h3.019v-2.061
			c0-0.164,0.136-0.299,0.296-0.299c0.16,0,0.294,0.135,0.294,0.299v4.707c0,0.163-0.134,0.297-0.294,0.297
			c-0.161,0-0.296-0.134-0.296-0.297V36.79h-3.019v2.093c0,0.163-0.134,0.297-0.3,0.297c-0.154,0-0.29-0.134-0.29-0.297V34.176z"/>
		<path fill="#002B5C" d="M98.084,34.176c0-0.164,0.135-0.299,0.29-0.299c0.166,0,0.3,0.135,0.3,0.299v4.707
			c0,0.163-0.134,0.297-0.3,0.297c-0.154,0-0.29-0.134-0.29-0.297V34.176z"/>
		<path fill="#002B5C" d="M99.974,36.544v-0.017c0-1.434,1.056-2.704,2.623-2.704c0.792,0,1.306,0.211,1.785,0.56
			c0.066,0.052,0.122,0.134,0.122,0.24c0,0.164-0.135,0.299-0.295,0.299c-0.064,0-0.126-0.03-0.185-0.074
			c-0.373-0.285-0.793-0.479-1.448-0.479c-1.159,0-1.988,0.979-1.988,2.146v0.014c0,1.248,0.799,2.174,2.067,2.174
			c0.6,0,1.152-0.231,1.51-0.522v-1.3h-1.402c-0.142,0-0.262-0.121-0.262-0.261c0-0.148,0.12-0.27,0.262-0.27h1.678
			c0.158,0,0.292,0.135,0.292,0.3v1.59c0,0.142-0.068,0.268-0.204,0.358c-0.477,0.352-1.12,0.636-1.894,0.636
			C100.99,39.233,99.974,38.038,99.974,36.544"/>
		<path fill="#002B5C" d="M106.064,34.176c0-0.164,0.134-0.299,0.294-0.299c0.163,0,0.296,0.135,0.296,0.299v2.061h3.019v-2.061
			c0-0.164,0.134-0.299,0.3-0.299c0.155,0,0.289,0.135,0.289,0.299v4.707c0,0.163-0.134,0.297-0.289,0.297
			c-0.166,0-0.3-0.134-0.3-0.297V36.79h-3.019v2.093c0,0.163-0.133,0.297-0.296,0.297c-0.16,0-0.294-0.134-0.294-0.297V34.176z"/>
		<path fill="#002B5C" d="M111.745,38.844v-4.632c0-0.163,0.133-0.299,0.289-0.299h3.25c0.149,0,0.27,0.122,0.27,0.27
			c0,0.149-0.121,0.27-0.27,0.27h-2.951v1.784h2.617c0.147,0,0.266,0.128,0.266,0.269c0,0.15-0.119,0.269-0.266,0.269h-2.617v1.832
			h2.989c0.149,0,0.27,0.119,0.27,0.269s-0.121,0.269-0.27,0.269h-3.287C111.878,39.143,111.745,39.008,111.745,38.844"/>
		<path fill="#002B5C" d="M116.75,34.214c0-0.166,0.133-0.301,0.291-0.301H119c0.641,0,1.159,0.196,1.486,0.522
			c0.254,0.256,0.403,0.621,0.403,1.032v0.015c0,0.858-0.584,1.359-1.397,1.516l1.299,1.673c0.061,0.068,0.098,0.136,0.098,0.217
			c0,0.157-0.148,0.291-0.3,0.291c-0.118,0-0.208-0.066-0.276-0.157l-1.471-1.913h-1.5v1.772c0,0.163-0.136,0.297-0.3,0.297
			c-0.158,0-0.291-0.134-0.291-0.297L116.75,34.214L116.75,34.214z M118.948,36.581c0.782,0,1.345-0.402,1.345-1.076v-0.014
			c0-0.643-0.494-1.033-1.338-1.033h-1.613v2.123H118.948z"/>
	</g>
</g>
</svg>
